<svg width="666" height="504" viewBox="0 0 666 504" fill="none" xmlns="http://www.w3.org/2000/svg">
<g id="Illustration">
<g id="Shape">
<g id="Rectangle" opacity="0.0375744" filter="url(#filter0_f_838_51911)">
<path fill-rule="evenodd" clip-rule="evenodd" d="M215.465 76.1557C211.548 72.2485 211.548 65.9034 215.465 61.9962L265.885 11.6991C269.789 7.80542 276.107 7.80542 280.01 11.6991L330.431 61.9962C334.348 65.9034 334.348 72.2485 330.431 76.1557L280.01 126.453C276.107 130.346 269.789 130.346 265.885 126.453L215.465 76.1557Z" fill="#AF0000"/>
</g>
<path id="Rectangle_2" opacity="0.0659412" fill-rule="evenodd" clip-rule="evenodd" d="M267.939 245.149C264.022 241.242 264.022 234.897 267.939 230.99L455.977 43.4129C459.881 39.5193 466.199 39.5192 470.102 43.4129L658.141 230.99C662.058 234.897 662.058 241.242 658.141 245.149L470.102 432.726C466.199 436.62 459.881 436.62 455.977 432.726L267.939 245.149Z" fill="#AF0000"/>
<path id="Rectangle_3" opacity="0.0895647" fill-rule="evenodd" clip-rule="evenodd" d="M143.244 240.969C139.008 236.733 132.132 236.742 127.886 240.988L7.95135 360.923C3.7053 365.169 3.69686 372.045 7.93248 376.28L127.573 495.921C131.809 500.157 138.684 500.148 142.931 495.902L262.866 375.967C267.112 371.721 267.12 364.845 262.884 360.61L143.244 240.969ZM61.6926 368.535L135.499 294.729L209.124 368.354L135.318 442.16L61.6926 368.535Z" fill="#AF0000"/>
</g>
<g id="Illustration_2">
<g id="Chair4">
<path id="Path" fill-rule="evenodd" clip-rule="evenodd" d="M442.791 365.178L425.422 501.936L434.528 501.816L451.897 366.458L442.791 365.178Z" fill="#C5C5C5"/>
<path id="Path_2" fill-rule="evenodd" clip-rule="evenodd" d="M450.173 365.178L467.541 501.936L458.435 501.816L441.066 366.458L450.173 365.178Z" fill="#C3C3C3"/>
<path id="Path_3" fill-rule="evenodd" clip-rule="evenodd" d="M503.122 365.178L520.491 501.936L511.385 501.816L494.016 366.458L503.122 365.178Z" fill="#C3C3C3"/>
<path id="Path_4" fill-rule="evenodd" clip-rule="evenodd" d="M382.357 386.675C376.233 386.675 371.269 381.711 371.269 375.587V369.188C371.269 363.064 376.233 358.1 382.357 358.1H448.153C453.874 358.1 458.655 353.749 459.192 348.054L469.33 240.638C469.868 234.943 474.649 230.592 480.369 230.592H527.77C534.23 230.592 539.322 236.092 538.825 242.533L528.501 376.439C528.055 382.215 523.239 386.675 517.446 386.675H382.357Z" fill="#C5C5C5"/>
<path id="Combined Shape" fill-rule="evenodd" clip-rule="evenodd" d="M524.225 230.592L514.062 362.034C513.615 367.809 508.799 372.267 503.007 372.267H371.269V368.826C371.269 362.702 376.233 357.738 382.357 357.738H447.944C453.663 357.738 458.444 353.388 458.983 347.694L469.116 240.635C469.655 234.942 474.435 230.592 480.154 230.592H524.225Z" fill="#B2B0B0"/>
</g>
<g id="Wom3.4">
<g id="LLeg">
<path id="Path_5" fill-rule="evenodd" clip-rule="evenodd" d="M382.661 457.429C382.661 457.429 390.184 475.467 384.017 480.249C377.841 485.032 365.828 496.859 365.828 496.859L404.748 488.417L395.141 455.323L382.661 457.429Z" fill="url(#paint0_linear_838_51911)"/>
<path id="Path_6" fill-rule="evenodd" clip-rule="evenodd" d="M384.896 469.307C384.896 469.307 385.852 477.772 383.091 480.661C380.332 483.548 365.388 494.544 364.218 496.63C363.047 498.718 365.14 501.02 365.14 501.02C365.14 501.02 381.281 502.423 388.54 498.012C393.781 494.826 401.597 489.105 401.597 489.105L403.668 494.731L409.535 494.491C409.535 494.491 410.313 487.559 408.92 484.236C407.528 480.912 400.356 463.995 400.356 463.995C400.356 463.995 397.596 466.474 394.663 467.724C391.73 468.972 388.055 472.391 388.055 472.391L384.896 469.307Z" fill="#323740"/>
<path id="Path_7" fill-rule="evenodd" clip-rule="evenodd" d="M447.771 323.687C434.686 324.27 361.857 340.357 348.625 343.09C335.393 345.823 324.206 360.612 334.296 377.737C345.629 396.961 374.869 451.555 381.968 463.862C385.482 469.953 403.209 466.538 399.045 456.314C391.282 437.255 387.678 389.376 367.887 371.919C367.887 371.919 434.442 383.486 463.19 370.236C484.084 360.604 479.357 322.276 447.771 323.687Z" fill="#42474F"/>
</g>
<g id="LArm">
<path id="Path_8" fill-rule="evenodd" clip-rule="evenodd" d="M356.49 239.249C356.49 239.249 356.638 228.616 352.914 223.059C349.189 217.502 349.041 211.599 346.223 211.792C343.404 211.986 346.195 225.705 346.195 225.705C346.195 225.705 342.619 224.341 340.049 222.615C337.48 220.889 329.69 212.38 327.869 213.888C324.782 216.457 329.754 230.949 332.462 233.846C335.179 236.744 350.021 246.275 350.021 246.275L386.374 283.399L393.199 264.539L356.49 239.249Z" fill="#FFE0D1"/>
<path id="Path_9" fill-rule="evenodd" clip-rule="evenodd" d="M436.903 235.742C430.816 249.841 419.671 275.743 415.076 283.47C409.318 293.148 400.238 297.411 389.607 290.231C386.785 288.325 378.186 281.042 378.186 281.042L388.591 258.174L395.34 263.736C395.34 263.736 406.764 234.491 415.953 217.55C423.912 202.893 446.169 214.307 436.903 235.742Z" fill="#B00101"/>
<path id="Path_10" fill-rule="evenodd" clip-rule="evenodd" d="M395.222 263.751C395.222 263.751 392.154 274.144 391.437 273.543C390.719 272.941 391.985 261.035 391.985 261.035L395.222 263.751Z" fill="black" fill-opacity="0.159856"/>
<path id="Path 65" fill-rule="evenodd" clip-rule="evenodd" d="M391.177 259.439L382.476 288.541L373.234 281.297L386.097 255.498L391.177 259.439Z" fill="#FFEDC2"/>
</g>
<g id="Head">
<g id="Group 21">
<path id="Path_11" fill-rule="evenodd" clip-rule="evenodd" d="M447.937 137.361C447.937 137.361 452.508 129.823 459.757 130.389C467.006 130.955 475.803 142.001 475.342 154.239C474.897 166.475 477.595 168.4 482.795 175.478C496.77 194.519 475.173 216.81 475.173 216.81L446.474 216.817L445.38 163.438L447.937 137.361Z" fill="#42474F"/>
<path id="Path 50" fill-rule="evenodd" clip-rule="evenodd" d="M459.321 141.772C478.877 155.122 467.67 170.614 465.712 174.251C461.949 200.718 469.706 202.077 481.412 207.992L477.34 215.268L460.564 212.11L446.414 143.109L459.321 141.772Z" fill="black" fill-opacity="0.199355"/>
</g>
<path id="Path_12" fill-rule="evenodd" clip-rule="evenodd" d="M468.548 206.199C468.548 206.199 458.58 204.198 458.284 190.233C457.988 176.268 459.63 171.501 459.63 171.501L440.832 171.162C440.832 171.162 440.628 186.726 440.624 192.355C440.617 206.043 430.067 207.631 430.067 207.631C430.067 207.631 432.26 218.458 449.293 219.415C462.592 220.163 468.548 206.199 468.548 206.199Z" fill="#F9C7B0"/>
<g id="Group 20">
<path id="Path_13" fill-rule="evenodd" clip-rule="evenodd" d="M458.933 141.317C459.617 133.262 446.324 131.303 443.862 137.525C443.862 137.525 443.186 143.069 447.513 145.233C453.364 148.147 458.933 141.317 458.933 141.317Z" fill="#FB9934"/>
<path id="Path_14" fill-rule="evenodd" clip-rule="evenodd" d="M460.707 162.064C468.842 160.004 470.053 172.28 461.529 174.075C461.529 174.075 460.201 192.162 443.019 195.814C429.065 198.78 423.937 179.118 422.969 175.184C421.935 170.99 418.968 157.12 418.968 157.12L458.213 148.759L460.707 162.064Z" fill="#FFE0D1"/>
<path id="Path_15" fill-rule="evenodd" clip-rule="evenodd" d="M457.975 170.374C456.498 170.29 454.474 162.626 454.474 162.626C450.119 162.686 449.183 161.9 444.925 157.397C431.535 163.364 422.207 166.3 423.155 176.818C423.155 176.818 407.589 155.374 424.254 143.034C438.915 132.19 457.518 135.496 463.251 147.773C467.306 156.437 466.302 163.647 466.302 163.647C466.302 163.647 463.457 160.717 460.146 162.304C456.835 163.89 459.453 170.458 457.975 170.374Z" fill="#42474F"/>
<path id="Path_16" d="M443.899 183.666C443.899 183.666 440.542 187.997 435.114 185.763" stroke="#F77B7B" stroke-width="1.5" stroke-linecap="round"/>
<path id="Path_17" d="M442.05 188.248C440.901 189.105 439.684 189.409 438.465 189.056" stroke="#F49494" stroke-linecap="round"/>
<path id="Path 8" d="M461.242 168.691C460.749 166.785 461.012 165.133 462.911 164.408" stroke="#F77B7B" stroke-linecap="round"/>
</g>
</g>
<g id="Group 19">
<path id="Path_18" fill-rule="evenodd" clip-rule="evenodd" d="M433.998 205.765C433.769 205.754 425.73 209.276 424.804 210.634C418.774 219.481 407.702 250.619 407.132 257.373C406.49 265.165 417.722 277.577 417.86 288.857C417.982 300.138 413.055 334.104 414.967 337.277C416.863 340.45 429.324 355.521 431.924 355.583C434.538 355.644 436.49 347.731 440.45 347.903C444.395 348.075 452.622 358.567 456.169 358.491C459.701 358.415 496.307 335.226 493.508 328.618C490.695 322.011 477.637 305.592 478.967 296.59C480.282 287.589 490.787 254.362 494.579 243.053C498.356 231.744 501.398 222.736 494.349 217.87C487.301 213.003 464.365 204.102 464.365 204.102L443.83 215.589C443.83 215.589 435.19 205.822 433.998 205.765Z" fill="#B00101"/>
<path id="Path_19" fill-rule="evenodd" clip-rule="evenodd" d="M441.299 215.27C435.14 235.751 426.688 255.932 423.302 275.138L433.149 269.832L442.232 276.714C441.59 256.747 444.943 235.782 446.484 215.27H441.299Z" fill="#FFF6E1"/>
<path id="Path_20" fill-rule="evenodd" clip-rule="evenodd" d="M477.273 230.996L477.507 232.653C480.266 253.22 477.001 278.178 471.342 281.986C465.566 285.873 443.083 282.059 443.083 285.137C443.083 288.215 474.153 316.425 469.052 329.911C466.248 337.326 467.187 343.92 471.87 349.694L473.229 348.78C483.841 341.583 495.107 332.394 493.508 328.618C490.695 322.011 477.637 305.592 478.967 296.59C480.23 287.949 489.961 256.981 494.093 244.512L495.409 240.559C496.938 235.924 498.211 231.725 498.519 228.102L497.57 227.486C482.395 217.759 475.629 218.929 477.273 230.996Z" fill="black" fill-opacity="0.159856"/>
<path id="Path_21" fill-rule="evenodd" clip-rule="evenodd" d="M468.155 205.553L464.365 204.102L443.379 214.995C443.379 214.995 447.325 225.036 454.313 220.036C460.302 215.76 457.775 211.998 462.47 210.057C467.15 208.116 468.155 205.553 468.155 205.553Z" fill="#FFF6E1"/>
<path id="Path_22" fill-rule="evenodd" clip-rule="evenodd" d="M443.379 214.995C441.858 218.374 438.765 220.348 437.166 219.734C434.527 218.721 435.66 214.681 434.62 212.641C433.875 211.193 433.394 210.975 432.742 209.616C432.136 208.369 432.111 206.873 432.266 206.46L434.331 205.521C434.331 205.521 437.168 208.197 438.488 209.616C440.133 211.384 443.379 214.995 443.379 214.995Z" fill="#FFF6E1"/>
</g>
<g id="RArm">
<path id="Path_23" fill-rule="evenodd" clip-rule="evenodd" d="M466.483 269.243C466.483 269.243 454.128 258.322 450.346 257.055C446.563 255.788 424.412 254.265 424.552 257.129C424.711 260.197 436.608 260.021 437.841 261.53C439.074 263.039 439.354 273.355 444.014 274.513C448.665 275.672 462.607 277.668 462.607 277.668L495.959 297.756L497.384 279.402L466.483 269.243Z" fill="#FFE0D1"/>
<path id="Path_24" fill-rule="evenodd" clip-rule="evenodd" d="M499.353 223.004C512.37 241.351 523.483 269.299 527.749 280.195C532.015 291.09 527.712 307.525 508.954 304.299C505.786 303.754 498.681 301.569 498.681 301.569L494.198 276.334L499.98 278.758C499.98 278.758 481.336 245.755 476.784 236.907C469.179 222.132 487.887 206.838 499.353 223.004Z" fill="#B00101"/>
<path id="Path_25" fill-rule="evenodd" clip-rule="evenodd" d="M499.98 278.758C499.98 278.758 509.45 283.378 508.259 281.346C507.068 279.314 496.408 272.34 496.408 272.34L499.98 278.758Z" fill="black" fill-opacity="0.159856"/>
<path id="Path 64" fill-rule="evenodd" clip-rule="evenodd" d="M499.077 277.592L502.174 304.88L489.928 300.992L491.776 274.25L499.077 277.592Z" fill="#FFEDC2"/>
</g>
<g id="RLeg">
<path id="Path_26" fill-rule="evenodd" clip-rule="evenodd" d="M337.211 458.038C337.211 458.038 337.437 475.898 322.701 482.576C307.975 489.252 297.482 488.851 298.818 494.013C300.153 499.174 338.485 498.966 342.065 494.929C345.116 491.495 351.751 459.515 353.578 461.96L337.211 458.038Z" fill="url(#paint1_linear_838_51911)"/>
<path id="Path_27" fill-rule="evenodd" clip-rule="evenodd" d="M350.955 472.117C350.955 472.117 347.858 479.701 347.586 484.298C347.312 488.896 340.262 501.966 340.262 501.966L334.693 502.664L334.184 497.926C334.184 497.926 326.123 501.357 321.065 501.904C316.009 502.453 298.664 500.394 295.215 497.531C291.765 494.669 293.508 490.638 303.464 488.182C313.419 485.726 328.887 478.55 331.83 473.355C334.773 468.158 334.791 468.292 334.791 468.292L334.732 476.951C334.732 476.951 337.28 472.394 340.288 471.785C343.295 471.178 350.955 472.117 350.955 472.117Z" fill="#323740"/>
<path id="Path_28" fill-rule="evenodd" clip-rule="evenodd" d="M487.337 318.165C487.337 318.165 512.097 355.424 482.494 372.066C457.214 386.278 379.241 369.631 379.241 369.631C379.241 369.631 380.624 380.752 379.241 390.67C375.629 416.574 358.45 459.732 354.815 465.154C349.789 472.654 334.477 466.998 334.189 460.754C333.901 454.51 345.731 374.76 347.531 359.553C349.32 344.344 354.971 342.135 371.475 337.978C375.267 337.023 420.105 325.894 424.213 326.219C459.507 329.006 487.337 318.165 487.337 318.165Z" fill="#42474F"/>
<path id="Path_29" opacity="0.439941" fill-rule="evenodd" clip-rule="evenodd" d="M469.351 367.925C443.755 370.79 375.989 364.885 373.267 367.568C370.668 370.13 371.102 414.696 365.273 440.488C371.015 424.859 377.23 405.091 379.241 390.67C380.624 380.752 379.241 369.631 379.241 369.631L381.889 370.159C395.704 372.839 459.752 384.346 482.494 372.066C495.833 364.864 500.994 353.712 497.977 338.611C494.339 356.425 484.797 366.197 469.351 367.925Z" fill="white" fill-opacity="0.192499"/>
<ellipse id="Oval" cx="4.30189" cy="7.87753" rx="4.30189" ry="7.87753" transform="matrix(-0.97437 0.224951 0.224951 0.97437 339.034 352.951)" fill="white" fill-opacity="0.192499"/>
<ellipse id="Oval_2" cx="5.73566" cy="8.59396" rx="5.73566" ry="8.59396" transform="matrix(-0.961262 -0.275637 -0.275637 0.961262 364.574 349.901)" fill="white" fill-opacity="0.192499"/>
</g>
</g>
<g id="Example Task1">
<g id="Group 3">
<path id="Rectangle_4" d="M290.07 215.801C289.239 214.26 290.237 212.367 291.978 212.182L334.698 207.628C335.675 207.524 336.62 208.01 337.104 208.865L364.267 256.841C365.108 258.326 364.221 260.195 362.539 260.484L320.001 267.78C318.958 267.959 317.918 267.452 317.415 266.521L290.07 215.801Z" fill="#AF0000"/>
<path id="Rectangle_5" fill-rule="evenodd" clip-rule="evenodd" d="M291.915 215.692C291.12 214.197 292.035 212.365 293.708 212.101L335.378 205.543C336.416 205.38 337.443 205.893 337.937 206.821L364.055 255.942C364.85 257.436 363.935 259.269 362.262 259.532L320.592 266.09C319.554 266.254 318.527 265.741 318.033 264.813L291.915 215.692Z" fill="url(#paint2_linear_838_51911)"/>
<path id="Rectangle_6" d="M294.106 215.063L336.064 207.94L361.876 256.486L320.119 262.815L294.106 215.063Z" fill="white"/>
<path id="Rectangle_7" d="M304.458 208.475C304.168 207.982 304.473 207.353 305.04 207.276L322.35 204.931C322.989 204.844 323.617 205.149 323.944 205.704L327.362 211.511C327.652 212.004 327.347 212.633 326.78 212.71L309.47 215.056C308.831 215.142 308.203 214.837 307.876 214.282L304.458 208.475Z" fill="#AF0000"/>
<path id="Path_30" fill-rule="evenodd" clip-rule="evenodd" d="M326.853 222.111C327.411 221.814 328.105 222.026 328.402 222.585C328.678 223.103 328.515 223.738 328.043 224.064L327.928 224.134L309.255 227.268C308.696 227.565 308.003 227.353 307.706 226.794C307.43 226.275 307.593 225.64 308.065 225.314L308.18 225.245L326.853 222.111Z" fill="#AF0000"/>
<path id="Path_31" fill-rule="evenodd" clip-rule="evenodd" d="M332.23 232.225C332.789 231.928 333.483 232.14 333.78 232.698C334.055 233.217 333.892 233.852 333.42 234.178L333.306 234.248L314.633 237.381C314.074 237.678 313.38 237.466 313.083 236.908C312.808 236.389 312.971 235.754 313.443 235.428L313.557 235.359L332.23 232.225Z" fill="#AF0000"/>
<path id="Path_32" fill-rule="evenodd" clip-rule="evenodd" d="M337.608 242.339C338.167 242.042 338.86 242.254 339.157 242.812C339.433 243.331 339.27 243.966 338.798 244.292L338.684 244.361L320.01 247.495C319.452 247.792 318.758 247.58 318.461 247.022C318.185 246.503 318.348 245.868 318.82 245.542L318.935 245.472L337.608 242.339Z" fill="#AF0000"/>
</g>
</g>
<g id="Group 26">
<g id="Group 25">
<path id="Rectangle_8" fill-rule="evenodd" clip-rule="evenodd" d="M290.259 319.46H319.149V503.038H290.259V319.46Z" fill="#C5C5C5"/>
<path id="Rectangle_9" fill-rule="evenodd" clip-rule="evenodd" d="M290.259 312.248H307.593V503.038H290.259V312.248Z" fill="#DBDBDB"/>
<path id="Rectangle_10" fill-rule="evenodd" clip-rule="evenodd" d="M158.823 319.46H301.826V374.521H187.712V503.038H158.823V319.46Z" fill="#C5C5C5"/>
<path id="Rectangle_11" fill-rule="evenodd" clip-rule="evenodd" d="M158.823 319.46H176.156V503.038H158.823V319.46Z" fill="#DBDBDB"/>
</g>
<g id="Group 25_2">
<path id="Rectangle_12" fill-rule="evenodd" clip-rule="evenodd" d="M516.442 319.46H545.331V503.038H516.442V319.46Z" fill="#C5C5C5"/>
<path id="Rectangle_13" fill-rule="evenodd" clip-rule="evenodd" d="M385.006 319.46H528.009V387.617H413.895V503.038H385.006V319.46Z" fill="#C5C5C5"/>
<path id="Rectangle_14" fill-rule="evenodd" clip-rule="evenodd" d="M181.923 312.248L402.172 312.248V387.483H181.923V312.248Z" fill="#DBDBDB"/>
<path id="Rectangle_15" fill-rule="evenodd" clip-rule="evenodd" d="M380.672 319.46H398.006V387.483H380.672V319.46Z" fill="#C3C3C3"/>
<path id="Rectangle_16" fill-rule="evenodd" clip-rule="evenodd" d="M385.006 319.46H402.339V503.038H385.006V319.46Z" fill="#DBDBDB"/>
<path id="Rectangle_17" fill-rule="evenodd" clip-rule="evenodd" d="M390.852 323.066C390.852 317.091 395.696 312.248 401.671 312.248L550.414 312.248C556.389 312.248 561.232 317.091 561.232 323.066C561.232 329.041 556.389 333.884 550.414 333.884H401.671C395.696 333.884 390.852 329.041 390.852 323.066Z" fill="#C5C5C5"/>
<path id="Rectangle_18" fill-rule="evenodd" clip-rule="evenodd" d="M164.757 316.575H385.006V338.211H164.757V316.575Z" fill="#C3C3C3"/>
<path id="Rectangle_19" fill-rule="evenodd" clip-rule="evenodd" d="M143.379 323.066C143.379 317.091 148.222 312.248 154.197 312.248H405.966C411.941 312.248 416.784 317.091 416.784 323.066C416.784 329.041 411.941 333.884 405.966 333.884H154.197C148.222 333.884 143.379 329.041 143.379 323.066Z" fill="#DBDBDB"/>
</g>
</g>
<g id="Cup">
<path id="Path_33" fill-rule="evenodd" clip-rule="evenodd" d="M437.739 292.854H444.99C446.39 292.854 447.525 293.932 447.525 295.262V298.561C447.525 301.713 444.835 304.268 441.517 304.268H437.739C437.139 304.268 436.653 303.806 436.653 303.236C436.653 302.666 437.139 302.204 437.739 302.204H441.517C443.635 302.204 445.352 300.573 445.352 298.561V295.262C445.352 295.072 445.19 294.918 444.99 294.918H437.739C437.139 294.918 436.653 294.456 436.653 293.886C436.653 293.316 437.139 292.854 437.739 292.854Z" fill="#AF0000"/>
<path id="Path_34" fill-rule="evenodd" clip-rule="evenodd" d="M413.663 290.228C412.063 290.228 410.765 291.46 410.765 292.98V299.862C410.765 304.816 414.703 308.897 419.767 309.435L419.768 310.871H432.452L432.452 309.403C437.389 308.754 441.19 304.73 441.19 299.862V292.98C441.19 291.46 439.893 290.228 438.293 290.228H413.663Z" fill="#AF0000"/>
<path id="Rectangle_20" fill-rule="evenodd" clip-rule="evenodd" d="M441.73 310.205C441.73 309.813 441.412 309.495 441.02 309.495H412.015C411.623 309.495 411.305 309.813 411.305 310.205C411.305 310.579 411.596 310.89 411.97 310.913L422.671 311.589H430.278L441.065 310.913C441.439 310.889 441.73 310.579 441.73 310.205Z" fill="#AF0000"/>
</g>
<g id="FacingBack Laptop3">
<path id="Rectangle_21" fill-rule="evenodd" clip-rule="evenodd" d="M245.549 309.662C245.549 308.571 246.433 307.686 247.524 307.686H386.676C387.767 307.686 388.652 308.571 388.652 309.662C388.652 310.753 387.767 311.638 386.676 311.638H247.524C246.433 311.638 245.549 310.753 245.549 309.662Z" fill="#AF0000"/>
<path id="Rectangle_22" fill-rule="evenodd" clip-rule="evenodd" d="M339.816 309.662C339.816 308.571 340.701 307.686 341.792 307.686H386.676C387.767 307.686 388.652 308.571 388.652 309.662C388.652 310.753 387.767 311.638 386.676 311.638H341.792C340.701 311.638 339.816 310.753 339.816 309.662Z" fill="#AF0000"/>
<path id="Rectangle_23" fill-rule="evenodd" clip-rule="evenodd" d="M238.573 252.084C238.296 249.931 239.973 248.024 242.144 248.024H332.066C333.876 248.024 335.405 249.368 335.636 251.164L342.421 303.796C342.698 305.949 341.021 307.856 338.85 307.856H248.929C247.118 307.856 245.59 306.512 245.358 304.717L238.573 252.084Z" fill="#AF0000"/>
<path id="Rectangle_24" fill-rule="evenodd" clip-rule="evenodd" d="M238.573 252.084C238.296 249.931 239.973 248.024 242.144 248.024H328.98C330.791 248.024 332.319 249.368 332.551 251.164L339.336 303.796C339.613 305.949 337.936 307.856 335.765 307.856H248.929C247.118 307.856 245.59 306.512 245.358 304.717L238.573 252.084Z" fill="url(#paint3_linear_838_51911)"/>
<ellipse id="Oval_3" cx="287.37" cy="278.892" rx="6.12511" ry="6.67189" transform="rotate(-37 287.37 278.892)" fill="white"/>
</g>
<g id="Group 79">
<g id="Group 86">
<path id="Path 113" fill-rule="evenodd" clip-rule="evenodd" d="M538.443 434.442C550.385 407.472 561.234 379.774 571.166 351.464C548.288 372.989 530.498 399.214 533.031 434.442H538.443Z" fill="#57E295"/>
<path id="Rectangle_25" fill-rule="evenodd" clip-rule="evenodd" d="M532.078 437.258C529.251 391.271 530.449 348.562 554.138 324.175C550.871 374.666 544.758 410.235 537.017 437.258H532.078Z" fill="#28C76F"/>
<path id="Path 112" fill-rule="evenodd" clip-rule="evenodd" d="M530.991 432.469C517.755 400.333 504.456 391.122 493.463 358.135C529.441 376.76 531.697 392.139 538.759 432.469H530.991Z" fill="#57E295"/>
<path id="Path 114" fill-rule="evenodd" clip-rule="evenodd" d="M523.867 432.469L500.124 400.333C511.591 403.597 530.758 408.881 530.758 432.469H523.867Z" fill="#28C76F"/>
<path id="Path 116" fill-rule="evenodd" clip-rule="evenodd" d="M546.074 432.469H553.995C559.028 421.977 566.121 414.754 583.282 423.51C572.033 406.405 548.954 401.229 546.074 432.469Z" fill="#57E295"/>
<path id="Path 117" fill-rule="evenodd" clip-rule="evenodd" d="M538.788 432.469H545.375C557.464 415.211 562.661 407.691 575.171 392.953C558.691 399.196 541.775 407.691 538.788 432.469Z" fill="#28C76F"/>
</g>
<g id="Group 85">
<path id="Rectangle_26" fill-rule="evenodd" clip-rule="evenodd" d="M522.23 429.978H555.504C556.771 429.978 557.799 430.998 557.799 432.257V438.524C566.213 449.064 570.42 459.604 570.42 470.144C570.42 480.359 566.827 490.575 559.642 500.79C559.213 501.4 558.51 501.764 557.761 501.764H519.973C519.224 501.764 518.522 501.4 518.092 500.79C510.907 490.575 507.314 480.359 507.314 470.144C507.314 459.803 511.364 449.462 519.464 439.121L519.936 438.524V432.257C519.936 430.998 520.963 429.978 522.23 429.978Z" fill="#AF0000"/>
<mask id="mask0_838_51911" style="mask-type:luminance" maskUnits="userSpaceOnUse" x="507" y="429" width="64" height="73">
<path id="Rectangle_27" fill-rule="evenodd" clip-rule="evenodd" d="M522.23 429.978H555.504C556.771 429.978 557.799 430.998 557.799 432.257V438.524C566.213 449.064 570.42 459.604 570.42 470.144C570.42 480.359 566.827 490.575 559.642 500.79C559.213 501.4 558.51 501.764 557.761 501.764H519.973C519.224 501.764 518.522 501.4 518.092 500.79C510.907 490.575 507.314 480.359 507.314 470.144C507.314 459.803 511.364 449.462 519.464 439.121L519.936 438.524V432.257C519.936 430.998 520.963 429.978 522.23 429.978Z" fill="white"/>
</mask>
<g mask="url(#mask0_838_51911)">
<path id="Rectangle_28" fill-rule="evenodd" clip-rule="evenodd" d="M499.283 428.005H529.115C514.833 461.02 543.004 480.572 529.115 513.464H499.283V428.005Z" fill="#AF0000"/>
</g>
</g>
</g>
</g>
</g>
<defs>
<filter id="filter0_f_838_51911" x="204.372" y="0.623963" width="137.151" height="136.904" filterUnits="userSpaceOnUse" color-interpolation-filters="sRGB">
<feFlood flood-opacity="0" result="BackgroundImageFix"/>
<feBlend mode="normal" in="SourceGraphic" in2="BackgroundImageFix" result="shape"/>
<feGaussianBlur stdDeviation="4.07742" result="effect1_foregroundBlur_838_51911"/>
</filter>
<linearGradient id="paint0_linear_838_51911" x1="411.483" y1="445.211" x2="408.078" y2="494.709" gradientUnits="userSpaceOnUse">
<stop stop-color="#FDC6C6"/>
<stop offset="1" stop-color="#FAB2B2"/>
</linearGradient>
<linearGradient id="paint1_linear_838_51911" x1="363.073" y1="448.328" x2="360.84" y2="495.982" gradientUnits="userSpaceOnUse">
<stop stop-color="#FDC6C6"/>
<stop offset="1" stop-color="#FAB2B2"/>
</linearGradient>
<linearGradient id="paint2_linear_838_51911" x1="268.145" y1="178.51" x2="323.004" y2="281.685" gradientUnits="userSpaceOnUse">
<stop offset="0.9999" stop-color="#AF0000"/>
<stop offset="1" stop-color="#8CA5FF"/>
</linearGradient>
<linearGradient id="paint3_linear_838_51911" x1="230.023" y1="216.249" x2="230.023" y2="307.856" gradientUnits="userSpaceOnUse">
<stop offset="0.9999" stop-color="#AF0000"/>
<stop offset="1" stop-color="#8CA5FF"/>
</linearGradient>
</defs>
</svg>
