<svg width="484" height="1080" viewBox="0 0 484 1080" fill="none" xmlns="http://www.w3.org/2000/svg">
<rect width="484" height="1080" fill="#F8F8F8"/>
<mask id="mask0_838_52798" style="mask-type:luminance" maskUnits="userSpaceOnUse" x="0" y="0" width="484" height="1080">
<rect width="484" height="1080" fill="white"/>
</mask>
<g mask="url(#mask0_838_52798)">
<path opacity="0.025797" fill-rule="evenodd" clip-rule="evenodd" d="M244.057 787.21C247.964 783.296 254.306 783.296 258.212 787.21L377.492 906.711C381.388 910.615 381.388 916.936 377.492 920.84L258.212 1040.34C254.306 1044.26 247.964 1044.26 244.057 1040.34L124.778 920.84C120.881 916.936 120.881 910.615 124.778 906.711L244.057 787.21Z" fill="#AF0000"/>
<g opacity="0.0375744" filter="url(#filter0_f_838_52798)">
<path fill-rule="evenodd" clip-rule="evenodd" d="M460.542 334.813C464.448 330.899 470.79 330.899 474.697 334.813L542.894 403.136C546.79 407.04 546.79 413.362 542.894 417.265L474.697 485.589C470.79 489.503 464.448 489.503 460.542 485.589L392.344 417.265C388.448 413.362 388.448 407.04 392.344 403.136L460.542 334.813Z" fill="#AF0000"/>
</g>
<path opacity="0.0659412" fill-rule="evenodd" clip-rule="evenodd" d="M244.581 473.62C248.487 469.706 254.829 469.706 258.736 473.62L502.366 717.703C506.262 721.606 506.262 727.928 502.366 731.832L258.736 975.914C254.829 979.828 248.487 979.828 244.581 975.914L0.950531 731.832C-2.94598 727.928 -2.94599 721.607 0.950526 717.703L244.581 473.62Z" fill="#AF0000"/>
<path opacity="0.0895647" fill-rule="evenodd" clip-rule="evenodd" d="M128.862 270.301C134.275 264.888 134.267 256.104 128.844 250.681L-24.3315 97.5059C-29.7543 92.0831 -38.5383 92.0749 -43.9511 97.4877L-196.842 250.379C-202.255 255.792 -202.247 264.576 -196.824 269.999L-43.649 423.174C-38.2262 428.597 -29.4422 428.605 -24.0294 423.192L128.862 270.301ZM-34.0773 166.165L60.1844 260.427L-33.9026 354.514L-128.164 260.252L-34.0773 166.165Z" fill="#AF0000"/>
<rect width="302" height="12" rx="6" transform="matrix(-1 0 0 1 575.5 531.5)" fill="#BABFC7"/>
<path d="M201.434 381.156C197.354 395.297 207.315 409.869 218.284 412.93C229.253 415.991 237.085 406.384 241.165 392.243C245.246 378.102 239.656 364.16 228.684 361.099C217.711 358.037 205.51 367.019 201.434 381.156Z" fill="#ECC4A6"/>
<path d="M261.059 654.5C261.059 654.5 233.521 697.212 229.8 699.071C226.078 700.929 216.783 701.389 220.268 708.343C223.753 715.296 225.15 742.699 228.391 744.093C231.633 745.488 259.539 748.729 255.354 744.093C251.168 739.457 248.596 741.775 246.484 733.415C244.372 725.055 241.408 709.27 245.358 706.021C249.307 702.772 273.5 673.546 273.5 673.546L261.059 654.5Z" fill="#ECC4A6"/>
<path d="M400.478 672.5C400.478 672.5 433.946 727.732 440.146 732.696C446.345 737.661 466.792 745.112 450.062 746.351C433.332 747.591 425.272 740.767 414.734 737.661C404.195 734.555 391.185 732.696 396.143 724.63C401.101 716.563 399.04 698.95 388.35 687.778C377.661 676.605 400.478 672.5 400.478 672.5Z" fill="#ECC4A6"/>
<path fill-rule="evenodd" clip-rule="evenodd" d="M229.291 544.542C229.291 544.542 312.233 542.372 345.117 569.371C364.352 598.546 410.884 684.628 414.5 694.099C412.018 696.582 398.056 701.071 391.854 700.44C373.548 678.609 349.356 659.729 339.735 642.604C327.875 621.497 324.22 610.946 304.989 609.082C285.757 607.219 242.319 601.014 229.291 601.014C216.262 601.014 229.291 544.542 229.291 544.542Z" fill="#222425"/>
<path fill-rule="evenodd" clip-rule="evenodd" d="M156.5 746.5H160.906L192.5 616.5H182.808L156.5 746.5Z" fill="#BABFC7"/>
<path fill-rule="evenodd" clip-rule="evenodd" d="M287.5 746.5H283.169L247.5 611.5H257.038L287.5 746.5Z" fill="#BABFC7"/>
<path fill-rule="evenodd" clip-rule="evenodd" d="M182.035 539.5L230.369 547.81C230.369 547.81 294.599 548.398 323.961 553.851C350.672 558.804 354.619 589.041 323.961 630.693C306.552 654.348 291.833 673.231 261.733 694.5C254.073 688.897 251.147 686.766 249.028 673.301C251.209 670.323 256.848 651.695 258.598 648.049C275.246 613.369 297.471 600.754 297.793 597.344C294.064 591.303 198.959 628.837 180.048 606.756C161.975 585.673 182.035 539.5 182.035 539.5Z" fill="#242526"/>
<path fill-rule="evenodd" clip-rule="evenodd" d="M180.879 430.048C193.597 428.267 206.552 430.682 218.665 439.432C229.254 450.202 241.232 467.964 240.499 497.263C239.565 534.468 246.269 536.859 239.278 547.091C210.123 559.088 160.258 610.731 172.003 555.384C180.502 515.312 153.352 485.437 175.256 440.984C177.04 437.366 179.266 433.859 180.879 430.048Z" fill="#AF0000"/>
<path fill-rule="evenodd" clip-rule="evenodd" d="M240.502 511.112C241.07 530.544 243.824 536.271 241.719 542.362C229.792 543.575 207.979 548.333 202.529 555.932C196.305 564.628 190.081 565.869 192.971 559.452C195.861 553.036 203.568 543.916 191.722 512.643C179.877 481.37 174.267 460.247 185.887 438.5L240.502 511.112Z" fill="#AF0000"/>
<path d="M179.5 430.246C187.377 412.001 189.311 391.5 189.311 391.5L209.931 397.461C209.931 397.461 198.233 423.144 209.463 432.318C212.264 434.578 214.946 436.975 217.5 439.5C205.318 430.872 192.29 428.49 179.5 430.246Z" fill="#ECC4A6"/>
<path d="M189.303 395.273C190.522 394.211 192.03 392.886 193.654 391.5L210.465 396.358L210.5 396.445C210.11 397.355 205.825 407.105 205.252 416.5C200.242 413.531 194.761 408.692 188.5 400.237C188.823 398.36 189.092 396.685 189.303 395.273Z" fill="#E38540"/>
<path d="M194.529 436.089C215.715 443.481 213.366 465.826 232.868 498.73C242.959 515.768 252.319 515.515 252.319 515.515C269.801 515.425 287.263 514.32 304.616 512.204C322.543 510.013 323.679 515.347 311.23 519.806C286.083 528.798 259.991 538.482 238.948 536.147C217.906 533.813 181.924 480.121 180.069 466.145C177.501 446.827 183.858 432.358 194.529 436.089Z" fill="#F09959"/>
<path fill-rule="evenodd" clip-rule="evenodd" d="M205.45 622.5C206.761 622.5 208.099 622.5 209.476 622.449C226.644 622.022 238.327 619.637 247.717 617.721C258.681 615.483 264.734 614.248 271.749 617.624C274.448 618.919 277.681 617.771 278.97 615.06C280.259 612.349 279.116 609.101 276.417 607.807C266.115 602.865 257.494 604.625 245.563 607.061C236.587 608.89 225.421 611.171 209.209 611.575C191.063 612.03 179.998 609.326 174.402 603.078C169.405 597.511 167.944 588.159 169.804 573.645C170.438 568.68 171.076 564.55 171.637 560.902C173.219 550.622 174.263 543.807 172.967 533.317C171.768 523.566 168.551 510.574 161.106 485.387C160.553 483.524 159.053 482.099 157.171 481.648C155.289 481.198 153.311 481.79 151.981 483.202C150.652 484.615 150.173 486.632 150.726 488.495C164.598 535.431 163.875 540.004 160.932 559.243C160.363 562.953 159.718 567.157 159.064 572.262C156.771 590.16 159.091 602.266 166.362 610.367C173.838 618.7 185.981 622.5 205.45 622.5Z" fill="#BABFC7"/>
<path fill-rule="evenodd" clip-rule="evenodd" d="M398.665 719.5C421.073 730.197 433.135 736.327 440.315 735.744C442.012 735.607 443.437 735.435 444.608 735.256C452.6 739.866 465.352 745.318 451.003 746.354C434.118 747.573 425.99 740.86 415.356 737.805C404.722 734.75 391.594 732.921 396.597 724.986C397.612 723.29 398.312 721.433 398.665 719.5Z" fill="#242526"/>
<path fill-rule="evenodd" clip-rule="evenodd" d="M228.314 699.5C228.855 717.24 231.251 734.82 241.925 738.134C244.404 738.929 247.023 739.166 249.601 738.828C251.279 740.939 253.328 740.963 256.076 744.069C260.229 748.752 232.552 745.478 229.324 744.069C226.096 742.66 224.718 714.992 221.263 707.956C218.419 702.185 224.138 700.835 228.314 699.5Z" fill="#242526"/>
<path fill-rule="evenodd" clip-rule="evenodd" d="M312.968 533.5H384.215C386.341 533.499 388.275 532.264 389.171 530.335L417.963 468.335C418.814 466.559 418.644 464.462 417.519 462.845C416.394 461.228 414.488 460.342 412.527 460.523C410.567 460.705 408.856 461.928 408.047 463.724L380.727 522.558H312.968C309.948 522.558 307.5 525.007 307.5 528.029C307.5 531.05 309.948 533.5 312.968 533.5Z" fill="#AF0000"/>
<path d="M299.107 512.117C313.512 511.907 327.795 503.378 334.892 504.624C341.989 505.87 365.163 521.837 362.248 522.458C359.332 523.079 340.949 513.623 340.305 513.479C339.66 513.336 335.713 520.028 325.9 522.485C316.087 524.943 325.833 515.183 295.418 524.306C275.659 530.242 299.107 512.117 299.107 512.117Z" fill="#ECC4A6"/>
<path fill-rule="evenodd" clip-rule="evenodd" d="M182.582 412.5L180.5 429.677C180.5 429.677 198.819 430.795 207.933 436.055C217.047 441.315 230.5 456.5 230.5 456.5L219.512 437.106L217.926 424.697L182.582 412.5Z" fill="#AF0000"/>
<path fill-rule="evenodd" clip-rule="evenodd" d="M190.681 433.839C204.43 431.265 210.79 443.569 219.703 463.659C228.617 483.748 243.832 508.141 246.866 511.289C249.901 514.437 297.855 511.289 297.855 511.289C297.855 511.289 299.306 525.164 297.855 526.82C296.404 528.475 288.115 528.269 288.115 528.269C288.115 528.269 284.797 530.917 281.689 533.011C278.581 535.104 252.252 539.039 240.025 538.438C227.798 537.837 216.599 536.779 214.942 534.914C213.285 533.05 179.913 481.694 177.837 463.264C175.761 444.833 183.666 435.157 190.681 433.839Z" fill="#AF0000"/>
<path d="M230.343 349.821C256.343 351.06 252.268 389.956 252.268 389.956C252.268 389.956 245.512 392.032 231.367 389.713C232.454 385.537 231.988 374.871 231.988 374.871C231.988 374.871 230.343 383.527 228.255 388.783C225.267 390.149 221.883 388.937 216.128 387.556C213.175 399.905 204.828 405.138 199.112 406.924C192.798 408.9 186.116 411.254 178.654 407.542C171.192 403.829 175.293 365.902 179.255 358.273C185.204 346.827 195.088 336.577 212.19 341.987C220.766 344.704 230.343 349.821 230.343 349.821Z" fill="#242526"/>
<path d="M185.5 396.261L174.962 411.661C174.962 411.661 186.638 440.865 152.683 454.099C126.089 464.463 129.224 482.721 141.238 501.071C153.252 519.421 134.046 535.5 134.046 535.5C134.046 535.5 131.12 515.159 105.279 511.317C70.0473 506.084 60.0712 458.727 86.3846 435.048C108.164 415.454 114.786 431.683 129.527 414.099C144.269 396.515 172.093 408.389 172.093 408.389L182.293 393.5L185.5 396.261Z" fill="#242526"/>
<path d="M73.791 482.5C73.9499 482.501 74.1063 482.462 74.2449 482.385C74.4667 482.268 74.6324 482.068 74.7052 481.83C74.778 481.592 74.7519 481.334 74.6328 481.115C65.7114 464.92 72.9881 445.3 76.6536 439.984C77.0415 439.422 77.41 438.849 77.8173 438.245C81.4207 432.667 85.9047 425.727 109.829 421.453C115.593 420.426 120.26 417.029 125.197 413.432C135.399 406.004 146.965 397.583 172.089 409.055C172.401 409.229 172.786 409.214 173.083 409.015C173.38 408.816 173.538 408.468 173.492 408.116C173.446 407.764 173.203 407.467 172.864 407.35C146.729 395.425 134.689 404.188 124.065 411.921C119.305 415.383 114.81 418.657 109.48 419.614C84.741 424.031 80.0011 431.355 76.2114 437.237C75.8236 437.83 75.4667 438.391 75.0943 438.93C71.2504 444.496 63.613 465.054 72.9726 482.015C73.1381 482.311 73.4503 482.496 73.791 482.5Z" fill="#303C60"/>
<path d="M190.641 411.5C192.496 411.489 194.347 411.339 196.18 411.053C205.302 409.688 217.539 404.51 218.5 375.428C218.489 374.924 218.086 374.517 217.582 374.501C217.078 374.484 216.649 374.864 216.605 375.365C216.215 387.355 213.83 396.222 209.529 401.727C206.264 405.91 201.932 408.277 195.907 409.179C187.465 410.443 181.869 408.888 179.277 404.553C179.102 404.26 178.784 404.082 178.443 404.087C178.102 404.091 177.789 404.277 177.622 404.574C177.455 404.872 177.46 405.236 177.634 405.529C180.012 409.498 184.375 411.5 190.641 411.5Z" fill="#303C60"/>
<path fill-rule="evenodd" clip-rule="evenodd" d="M307.5 746.5H314.452L341.5 539.5H326.205L307.5 746.5Z" fill="#BABFC7"/>
</g>
<defs>
<filter id="filter0_f_838_52798" x="381.267" y="323.722" width="172.704" height="172.957" filterUnits="userSpaceOnUse" color-interpolation-filters="sRGB">
<feFlood flood-opacity="0" result="BackgroundImageFix"/>
<feBlend mode="normal" in="SourceGraphic" in2="BackgroundImageFix" result="shape"/>
<feGaussianBlur stdDeviation="4.07742" result="effect1_foregroundBlur_838_52798"/>
</filter>
</defs>
</svg>
