<?xml version="1.0" standalone="no"?>
<!DOCTYPE svg PUBLIC "-//W3C//DTD SVG 20010904//EN"
 "http://www.w3.org/TR/2001/REC-SVG-20010904/DTD/svg10.dtd">
<svg version="1.0" xmlns="http://www.w3.org/2000/svg"
 width="300.000000pt" height="300.000000pt" viewBox="0 0 300.000000 300.000000"
 preserveAspectRatio="xMidYMid meet">
<metadata>
Created by potrace 1.14, written by Peter Selinger 2001-2017
</metadata>
<g transform="translate(0.000000,300.000000) scale(0.100000,-0.100000)"
fill="#000000" stroke="none">
<path d="M1807 1940 c-9 -4 -13 -37 -13 -118 l-1 -112 66 4 c36 3 74 5 84 6
15 0 17 12 17 110 0 107 -1 110 -22 111 -88 4 -120 3 -131 -1z"/>
<path d="M1992 1835 c2 -66 7 -109 13 -108 26 3 292 16 398 18 64 1 120 5 123
8 24 24 -52 131 -118 165 -43 22 -57 24 -232 25 l-187 2 3 -110z"/>
<path d="M2572 1935 c-11 -17 -9 -125 2 -134 12 -10 75 -46 119 -69 33 -17 32
-19 -48 -61 -33 -18 -65 -38 -70 -45 -6 -8 -10 -93 -10 -212 l0 -199 83 -3 82
-3 0 366 c0 317 -2 365 -15 366 -84 4 -138 2 -143 -6z"/>
<path d="M498 1648 c-80 -161 -144 -294 -143 -296 2 -2 21 8 43 23 22 14 75
41 118 60 73 32 80 38 105 86 l26 52 14 -31 c17 -40 28 -44 75 -27 22 8 46 14
55 15 8 0 23 6 33 13 17 12 11 26 -78 205 -53 106 -98 192 -99 192 -2 0 -69
-132 -149 -292z"/>
<path d="M1326 1792 c-41 -82 -73 -152 -71 -154 5 -5 264 37 271 44 4 5 -109
244 -121 256 -2 2 -38 -63 -79 -146z"/>
<path d="M2237 1674 c-2 -2 -185 -13 -224 -14 l-23 0 0 -225 0 -226 83 3 82 3
0 135 1 134 104 1 c86 1 112 5 145 22 46 24 86 64 109 110 32 64 32 64 -130
61 -80 -1 -146 -3 -147 -4z"/>
<path d="M1939 1656 c-2 -2 -35 -6 -74 -10 -38 -3 -70 -6 -71 -6 0 0 0 -97 0
-215 l0 -215 83 0 83 0 0 219 c0 191 -5 242 -21 227z"/>
<path d="M1560 1617 c-3 -3 -32 -8 -65 -11 -33 -4 -87 -12 -120 -17 -33 -6
-71 -13 -85 -15 -84 -14 -75 -4 -166 -186 -46 -93 -84 -171 -84 -174 0 -3 42
-3 92 -2 l93 3 89 178 89 179 89 -181 88 -181 91 0 c88 0 90 1 84 21 -13 39
-190 390 -195 386z"/>
<path d="M780 1460 c-30 -9 -56 -24 -57 -31 -1 -8 22 -59 50 -114 l52 -100 79
-3 c44 -2 85 -1 92 2 10 4 -5 42 -52 136 -74 145 -68 141 -164 110z"/>
<path d="M471 1340 c-76 -40 -141 -94 -141 -117 0 -9 19 -13 68 -13 l68 0 29
58 c33 65 55 112 52 112 -1 0 -35 -18 -76 -40z"/>
<path d="M48 1075 c-10 -25 -13 -45 -8 -45 5 0 11 4 14 9 6 10 24 9 41 0 19
-10 74 -9 80 1 4 6 -1 22 -10 37 -9 14 -12 22 -6 19 6 -4 11 0 11 8 0 20 -36
21 -44 1 -3 -8 5 -24 17 -36 15 -15 17 -20 6 -16 -9 3 -21 1 -26 -4 -6 -6 -14
5 -23 31 -7 22 -18 40 -24 40 -7 0 -19 -20 -28 -45z"/>
<path d="M202 1108 c-7 -7 -12 -25 -12 -40 0 -51 81 -50 88 1 7 42 -46 69 -76
39z m56 -31 c4 -20 -25 -34 -40 -19 -15 15 -1 44 19 40 10 -2 19 -11 21 -21z"/>
<path d="M290 1104 c0 -10 8 -26 18 -37 16 -19 16 -20 0 -14 -12 4 -18 1 -18
-8 0 -9 10 -15 25 -15 30 0 33 24 8 52 -10 11 -12 18 -6 16 6 -2 13 2 15 7 1
6 -7 11 -19 13 -16 2 -23 -2 -23 -14z"/>
<path d="M359 1118 c-7 -16 -5 -88 2 -88 10 0 11 2 13 53 1 20 -2 37 -6 37 -4
0 -8 -1 -9 -2z"/>
<path d="M398 1075 c-13 -34 -14 -45 -5 -45 7 0 18 5 25 12 7 7 15 8 24 1 7
-5 28 -10 46 -11 40 -3 52 20 27 48 -17 19 -17 20 -1 20 9 0 14 5 11 10 -3 6
-15 10 -26 10 -24 0 -25 -27 -1 -53 15 -18 15 -20 1 -14 -9 3 -21 1 -27 -5 -6
-6 -12 0 -17 19 -7 29 -23 53 -34 53 -4 0 -14 -20 -23 -45z"/>
<path d="M540 1075 c0 -53 16 -61 22 -11 4 39 0 56 -13 56 -5 0 -9 -20 -9 -45z"/>
<path d="M626 1088 c-9 -17 -16 -37 -16 -45 0 -16 17 -17 23 0 3 9 9 9 27 -1
12 -7 24 -12 26 -9 6 6 -28 87 -37 87 -4 0 -15 -14 -23 -32z"/>
<path d="M702 1078 c2 -35 7 -44 25 -46 22 -3 40 20 37 48 -1 8 -2 21 -3 28
-3 29 -21 9 -21 -23 0 -19 -4 -35 -10 -35 -5 0 -10 16 -10 35 0 19 -5 35 -11
35 -6 0 -9 -17 -7 -42z"/>
<path d="M780 1074 c0 -43 1 -45 26 -42 37 4 51 29 36 62 -8 18 -19 26 -37 26
-23 0 -25 -4 -25 -46z m45 1 c0 -10 -6 -20 -12 -22 -8 -3 -13 5 -13 22 0 17 5
25 13 23 6 -3 12 -13 12 -23z"/>
<path d="M860 1075 c0 -44 19 -66 21 -25 4 55 1 70 -11 70 -5 0 -10 -20 -10
-45z"/>
<path d="M890 1110 c0 -5 4 -10 9 -10 4 0 7 -16 4 -35 -2 -20 1 -35 7 -35 10
0 13 14 13 53 0 9 4 17 8 17 5 0 9 5 9 10 0 6 -11 10 -25 10 -14 0 -25 -4 -25
-10z"/>
<path d="M956 1104 c-30 -29 -9 -74 34 -74 44 0 64 44 34 74 -20 20 -48 20
-68 0z m57 -16 c7 -21 -4 -38 -23 -38 -10 0 -20 6 -23 13 -7 20 4 37 23 37 10
0 20 -6 23 -12z"/>
<path d="M1050 1075 c0 -25 5 -45 10 -45 6 0 10 5 10 12 0 9 3 9 12 0 18 -18
30 -14 19 5 -6 11 -6 24 1 37 11 21 -3 36 -34 36 -15 0 -18 -9 -18 -45z"/>
<path d="M1156 1111 c-9 -13 -4 -81 6 -81 9 0 9 0 12 53 1 35 -6 48 -18 28z"/>
<path d="M1190 1075 c0 -25 5 -45 10 -45 6 0 10 10 10 23 l0 22 19 -24 c22
-29 37 -22 35 16 -1 15 -3 34 -3 41 -1 6 -6 12 -12 12 -6 0 -9 -9 -6 -20 3
-11 2 -20 -2 -20 -3 0 -12 9 -19 20 -20 32 -32 23 -32 -25z"/>
<path d="M1270 1110 c0 -5 4 -10 8 -10 5 0 8 -14 8 -32 -1 -18 5 -33 12 -36
10 -3 12 4 9 27 -3 17 -1 33 4 37 18 10 9 24 -16 24 -14 0 -25 -4 -25 -10z"/>
<path d="M1330 1075 c0 -41 2 -45 25 -45 14 0 25 5 25 10 0 6 -7 10 -15 10 -8
0 -15 5 -15 10 0 6 7 10 15 10 21 0 19 18 -2 23 -17 4 -17 5 0 6 27 2 20 21
-8 21 -23 0 -25 -4 -25 -45z"/>
<path d="M1393 1075 c-1 -25 2 -45 7 -45 6 0 10 8 10 18 1 16 1 16 11 0 17
-29 25 -21 25 25 -1 37 -4 42 -26 45 -24 3 -25 0 -27 -43z"/>
<path d="M1467 1114 c-11 -11 -8 -84 3 -84 10 0 14 13 11 40 -1 8 6 3 16 -12
27 -42 42 -35 41 17 0 29 -5 44 -12 42 -6 -2 -12 -9 -12 -15 -1 -7 -2 -15 -3
-18 0 -3 -9 4 -19 16 -9 12 -21 18 -25 14z"/>
<path d="M1590 1075 c0 -28 4 -44 10 -40 6 3 10 13 10 21 0 8 7 14 16 14 25 0
13 44 -13 48 -21 3 -23 -1 -23 -43z"/>
<path d="M1656 1108 c-2 -7 -4 -28 -3 -46 1 -31 2 -33 39 -30 23 1 38 7 38 15
0 7 5 13 10 13 6 0 10 -7 10 -15 0 -25 30 -17 31 8 l0 22 9 -22 c13 -33 32
-29 25 5 -3 15 -7 34 -9 41 -5 26 -24 23 -34 -6 l-10 -28 -7 28 c-9 36 -28 30
-36 -12 -8 -39 -9 -40 -34 -31 -19 7 -19 8 5 18 l25 10 -25 10 c-25 11 -25 11
-2 11 13 1 20 5 17 11 -9 14 -45 12 -49 -2z"/>
<path d="M1829 1105 c-1 -8 -1 -24 -1 -35 0 -37 2 -40 27 -40 14 0 25 5 25 10
0 6 -7 10 -15 10 -21 0 -19 20 3 20 15 1 15 2 -2 15 -17 13 -18 15 -3 15 9 0
17 5 17 10 0 17 -50 12 -51 -5z"/>
<path d="M1890 1075 c0 -25 5 -45 10 -45 6 0 10 5 10 11 0 8 5 7 15 -1 19 -16
32 -5 17 13 -8 9 -8 17 -1 24 16 16 -1 43 -27 43 -22 0 -24 -4 -24 -45z"/>
<path d="M1960 1076 c0 -25 5 -46 10 -46 6 0 10 18 10 39 0 22 -4 43 -10 46
-6 4 -10 -12 -10 -39z"/>
<path d="M1999 1118 c-1 -2 -2 -22 -4 -46 -1 -27 2 -41 9 -39 6 2 10 11 8 21
-4 22 11 20 26 -4 20 -32 32 -23 32 25 0 25 -4 45 -10 45 -5 0 -10 -10 -10
-22 l-1 -23 -18 23 c-17 20 -29 27 -32 20z"/>
<path d="M2084 1104 c3 -9 6 -29 6 -45 0 -16 5 -29 10 -29 6 0 10 16 10 35 0
19 5 35 10 35 6 0 10 5 10 10 0 6 -12 10 -26 10 -20 0 -25 -4 -20 -16z"/>
<path d="M2147 1079 c-19 -47 -16 -59 9 -38 20 16 24 16 35 -2 16 -26 22 1 8
37 -20 51 -33 52 -52 3z"/>
<path d="M2229 1118 c-1 -2 -3 -22 -4 -45 -3 -32 0 -43 11 -43 8 0 13 3 13 8
-3 18 2 32 11 32 6 0 10 -9 10 -20 0 -11 5 -20 10 -20 6 0 10 20 10 45 0 25
-4 45 -10 45 -5 0 -10 -7 -10 -16 0 -9 -6 -14 -12 -11 -7 2 -12 10 -10 16 2 9
-15 17 -19 9z"/>
<path d="M2340 1075 c0 -25 5 -45 10 -45 6 0 10 20 10 45 0 25 -4 45 -10 45
-5 0 -10 -20 -10 -45z"/>
<path d="M2377 1103 c-8 -29 -1 -67 13 -71 9 -3 11 2 7 17 -7 27 4 27 21 1 20
-32 32 -23 32 25 0 45 -20 66 -21 23 l0 -23 -16 23 c-19 27 -30 28 -36 5z"/>
<path d="M2469 1118 c0 -2 -2 -22 -4 -45 -2 -41 -1 -43 24 -43 32 0 51 16 51
45 0 27 -18 45 -47 45 -13 0 -23 -1 -24 -2z m46 -43 c0 -11 -7 -21 -15 -23
-10 -2 -15 6 -15 23 0 17 5 25 15 23 8 -2 15 -12 15 -23z"/>
<path d="M2562 1108 c-7 -7 -12 -25 -12 -40 0 -21 6 -29 25 -34 49 -12 77 17
57 62 -13 26 -49 33 -70 12z m53 -33 c0 -13 -8 -21 -22 -23 -17 -3 -23 2 -23
16 0 10 3 22 7 26 13 13 38 1 38 -19z"/>
<path d="M2650 1074 c0 -32 4 -44 13 -41 6 2 11 15 9 28 -3 24 -2 24 15 -3 26
-41 41 -35 39 15 0 23 -5 41 -11 39 -5 -2 -8 -13 -7 -25 4 -20 2 -20 -18 6
-30 38 -40 34 -40 -19z"/>
<path d="M2740 1075 c0 -41 2 -45 25 -45 14 0 25 5 25 10 0 6 -7 10 -15 10 -8
0 -15 5 -15 11 0 6 7 9 15 5 9 -3 15 0 15 9 0 7 -8 16 -17 18 -17 4 -17 5 0 6
27 2 20 21 -8 21 -23 0 -25 -4 -25 -45z"/>
<path d="M2806 1111 c-8 -12 3 -41 15 -41 5 0 9 -4 9 -10 0 -5 -7 -10 -16 -10
-8 0 -12 -5 -9 -10 4 -6 23 -9 43 -7 35 4 37 6 40 46 2 24 -1 41 -7 41 -6 0
-11 -16 -11 -35 0 -19 -4 -35 -10 -35 -5 0 -10 7 -10 15 0 7 -8 19 -17 24 -16
9 -15 10 5 11 13 0 20 4 17 10 -8 12 -42 13 -49 1z"/>
<path d="M2915 1084 c-8 -20 -15 -40 -15 -45 0 -13 14 -11 28 3 8 8 15 8 27
-2 8 -7 18 -11 21 -8 7 8 -26 88 -37 88 -5 0 -16 -16 -24 -36z"/>
</g>
</svg>
